<?xml version="1.0" encoding="utf-8"?>
<!-- Generator: Adobe Illustrator 23.0.3, SVG Export Plug-In . SVG Version: 6.00 Build 0)  -->
<svg version="1.1" id="Layer_1" xmlns="http://www.w3.org/2000/svg" xmlns:xlink="http://www.w3.org/1999/xlink" x="0px" y="0px"
	 viewBox="0 0 43.7 43.7" style="enable-background:new 0 0 43.7 43.7;" xml:space="preserve">
<style type="text/css">
	.st0{fill:#A5481B;}
	.st1{fill:#FFC866;}
</style>
<g>
	<path class="st0" d="M43.5,3.3l-40,40c-0.6,0.6-1.7,0.4-2.5-0.4l-0.2-0.2c-0.8-0.8-1-1.9-0.4-2.5l40-40"/>
</g>
<path class="st0" d="M18.6,32.6l-2.2-2.2c-0.4-0.4-0.4-1,0-1.3l0.1-0.1c0.4-0.4,1-0.4,1.3,0l2.2,2.2"/>
<path class="st0" d="M29.1,8.5l1.6,1.6c0.5,0.5,1.4,0.5,2,0v0c0.5-0.5,0.5-1.4,0-2L31,6.5"/>
<ellipse transform="matrix(0.7071 -0.7071 0.7071 0.7071 -16.8534 22.9906)" class="st1" cx="19.3" cy="31.8" rx="1" ry="0.7"/>
<ellipse transform="matrix(0.7071 -0.7071 0.7071 0.7071 3.5008 23.4665)" class="st1" cx="30.1" cy="7.5" rx="1.4" ry="1"/>
<ellipse transform="matrix(0.7071 -0.7071 0.7071 0.7071 11.0622 30.1696)" class="st1" cx="41.9" cy="1.7" rx="1.1" ry="2.2"/>
</svg>
